<?xml version="1.0" standalone="no"?><!DOCTYPE svg PUBLIC "-//W3C//DTD SVG 1.1//EN" "http://www.w3.org/Graphics/SVG/1.1/DTD/svg11.dtd"><svg t="1635300423180" class="icon" viewBox="0 0 1024 1024" version="1.1" xmlns="http://www.w3.org/2000/svg" p-id="1523" xmlns:xlink="http://www.w3.org/1999/xlink" width="200" height="200"><defs><style type="text/css"></style></defs><path d="M512.00614 385.338482c103.91142 0 188.659424-84.755166 188.659423-188.66761S615.91756 8.004285 512.00614 8.004285c-103.909374 0-188.671703 84.754143-188.671703 188.666587s84.76233 188.66761 188.671703 188.66761zM543.466603 497.891706v486.577031c0 18.454267-1.694592 31.541304 25.387152 31.528001 14.338538-0.007163 44.306-15.508174 58.082744-20.831402 48.875053-18.863589 144.583667-50.15316 258.581797-58.047952 36.045889-2.498909 81.300492 6.063077 110.074781-12.606084 11.178575-7.248063 21.809681-18.446081 22.3111-34.93151V426.174457s-7.71469-41.928864-54.059112-37.5174c-46.332142 4.417604-299.00845 14.344678-420.378462 109.234649zM480.532374 497.891706v486.577031c0 18.454267 1.708918 31.541304-25.37078 31.528001-14.351841-0.007163-44.320326-15.508174-58.098093-20.831402-48.860727-18.863589-144.569341-50.15316-258.56747-58.047952-36.045889-2.498909-81.299468 6.063077-110.075805-12.606084-11.176528-7.248063-21.808658-18.446081-22.325426-34.93151V426.174457s7.729016-41.928864 54.075484-37.5174c46.331119 4.417604 299.00845 14.344678 420.36209 109.234649z" fill="#1296db" p-id="1524"></path></svg>